<svg xmlns="http://www.w3.org/2000/svg" width="640" height="400" viewBox="0 0 640 400">

  <desc>Bar chart titled 'Regional Sales (units)' with 5 categories</desc>
  <line x1="60.0" y1="288.0" x2="620.0" y2="288.0" stroke="#ddd" stroke-width="0.5"/>
  <text x="52.0" y="292.0" font-size="10" text-anchor="end" fill="#333">31</text>
  <line x1="60.0" y1="226.0" x2="620.0" y2="226.0" stroke="#ddd" stroke-width="0.5"/>
  <text x="52.0" y="230.0" font-size="10" text-anchor="end" fill="#333">62</text>
  <line x1="60.0" y1="164.0" x2="620.0" y2="164.0" stroke="#ddd" stroke-width="0.5"/>
  <text x="52.0" y="168.0" font-size="10" text-anchor="end" fill="#333">93</text>
  <line x1="60.0" y1="102.0" x2="620.0" y2="102.0" stroke="#ddd" stroke-width="0.5"/>
  <text x="52.0" y="106.0" font-size="10" text-anchor="end" fill="#333">124</text>
  <line x1="60.0" y1="40.0" x2="620.0" y2="40.0" stroke="#ddd" stroke-width="0.5"/>
  <text x="52.0" y="44.0" font-size="10" text-anchor="end" fill="#333">155</text>
  <line x1="60.0" y1="350.0" x2="620.0" y2="350.0" stroke="#333" stroke-width="1.5"/>
  <line x1="60.0" y1="40.0" x2="60.0" y2="350.0" stroke="#333" stroke-width="1.5"/>
  <rect x="76.8" y="110.4" width="78.4" height="239.6" fill="#4e79a7" rx="2.0"/>
  <text x="116.0" y="368.0" font-size="11" text-anchor="middle" fill="#333">North</text>
  <text x="116.0" y="104.4" font-size="9" text-anchor="middle" fill="#333">120</text>
  <rect x="188.8" y="190.3" width="78.4" height="159.7" fill="#f28e2b" rx="2.0"/>
  <text x="228.0" y="368.0" font-size="11" text-anchor="middle" fill="#333">South</text>
  <text x="228.0" y="184.3" font-size="9" text-anchor="middle" fill="#333">80</text>
  <rect x="300.8" y="160.3" width="78.4" height="189.7" fill="#e15759" rx="2.0"/>
  <text x="340.0" y="368.0" font-size="11" text-anchor="middle" fill="#333">East</text>
  <text x="340.0" y="154.3" font-size="9" text-anchor="middle" fill="#333">95</text>
  <rect x="412.8" y="230.2" width="78.4" height="119.8" fill="#76b7b2" rx="2.0"/>
  <text x="452.0" y="368.0" font-size="11" text-anchor="middle" fill="#333">West</text>
  <text x="452.0" y="224.2" font-size="9" text-anchor="middle" fill="#333">60</text>
  <rect x="524.8" y="80.4" width="78.4" height="269.6" fill="#59a14f" rx="2.0"/>
  <text x="564.0" y="368.0" font-size="11" text-anchor="middle" fill="#333">Central</text>
  <text x="564.0" y="74.4" font-size="9" text-anchor="middle" fill="#333">135</text>
  <text x="320.0" y="20.0" font-size="14" text-anchor="middle" fill="#222">Regional Sales (units)</text>
</svg>
