<svg xmlns="http://www.w3.org/2000/svg" width="640" height="480" viewBox="0 0 640 480">

  <desc>Scatter plot titled "Cluster Distribution" with 75 points</desc>
  <line x1="60.0" y1="40.0" x2="620.0" y2="40.0" stroke="#eee" stroke-width="0.5"/>
  <text x="52.0" y="44.0" font-size="10" text-anchor="end" fill="#333">13.5</text>
  <line x1="60.0" y1="137.5" x2="620.0" y2="137.5" stroke="#eee" stroke-width="0.5"/>
  <text x="52.0" y="141.5" font-size="10" text-anchor="end" fill="#333">10.9</text>
  <line x1="60.0" y1="235.0" x2="620.0" y2="235.0" stroke="#eee" stroke-width="0.5"/>
  <text x="52.0" y="239.0" font-size="10" text-anchor="end" fill="#333">8.4</text>
  <line x1="60.0" y1="332.5" x2="620.0" y2="332.5" stroke="#eee" stroke-width="0.5"/>
  <text x="52.0" y="336.5" font-size="10" text-anchor="end" fill="#333">5.9</text>
  <line x1="60.0" y1="430.0" x2="620.0" y2="430.0" stroke="#eee" stroke-width="0.5"/>
  <text x="52.0" y="434.0" font-size="10" text-anchor="end" fill="#333">3.4</text>
  <line x1="60.0" y1="40.0" x2="60.0" y2="430.0" stroke="#eee" stroke-width="0.5"/>
  <text x="60.0" y="448.0" font-size="10" text-anchor="middle" fill="#333">-0.1</text>
  <line x1="200.0" y1="40.0" x2="200.0" y2="430.0" stroke="#eee" stroke-width="0.5"/>
  <text x="200.0" y="448.0" font-size="10" text-anchor="middle" fill="#333">2.4</text>
  <line x1="340.0" y1="40.0" x2="340.0" y2="430.0" stroke="#eee" stroke-width="0.5"/>
  <text x="340.0" y="448.0" font-size="10" text-anchor="middle" fill="#333">4.9</text>
  <line x1="480.0" y1="40.0" x2="480.0" y2="430.0" stroke="#eee" stroke-width="0.5"/>
  <text x="480.0" y="448.0" font-size="10" text-anchor="middle" fill="#333">7.4</text>
  <line x1="620.0" y1="40.0" x2="620.0" y2="430.0" stroke="#eee" stroke-width="0.5"/>
  <text x="620.0" y="448.0" font-size="10" text-anchor="middle" fill="#333">10.0</text>
  <line x1="60.0" y1="430.0" x2="620.0" y2="430.0" stroke="#333" stroke-width="1.5"/>
  <line x1="60.0" y1="40.0" x2="60.0" y2="430.0" stroke="#333" stroke-width="1.5"/>
  <circle cx="224.8" cy="374.0" r="4.0" fill="#4e79a7" opacity="0.75"/>
  <circle cx="227.0" cy="337.5" r="4.0" fill="#4e79a7" opacity="0.75"/>
  <circle cx="225.9" cy="429.3" r="4.0" fill="#4e79a7" opacity="0.75"/>
  <circle cx="256.5" cy="377.9" r="4.0" fill="#4e79a7" opacity="0.75"/>
  <circle cx="219.9" cy="361.9" r="4.0" fill="#4e79a7" opacity="0.75"/>
  <circle cx="249.8" cy="318.2" r="4.0" fill="#4e79a7" opacity="0.75"/>
  <circle cx="278.1" cy="362.2" r="4.0" fill="#4e79a7" opacity="0.75"/>
  <circle cx="185.2" cy="409.1" r="4.0" fill="#4e79a7" opacity="0.75"/>
  <circle cx="250.8" cy="312.1" r="4.0" fill="#4e79a7" opacity="0.75"/>
  <circle cx="237.1" cy="371.2" r="4.0" fill="#4e79a7" opacity="0.75"/>
  <circle cx="269.8" cy="427.5" r="4.0" fill="#4e79a7" opacity="0.75"/>
  <circle cx="213.6" cy="346.3" r="4.0" fill="#4e79a7" opacity="0.75"/>
  <circle cx="292.5" cy="376.8" r="4.0" fill="#4e79a7" opacity="0.75"/>
  <circle cx="259.4" cy="356.4" r="4.0" fill="#4e79a7" opacity="0.75"/>
  <circle cx="286.4" cy="413.2" r="4.0" fill="#4e79a7" opacity="0.75"/>
  <circle cx="272.2" cy="430.0" r="4.0" fill="#4e79a7" opacity="0.75"/>
  <circle cx="60.0" cy="392.1" r="4.0" fill="#4e79a7" opacity="0.75"/>
  <circle cx="173.4" cy="330.2" r="4.0" fill="#4e79a7" opacity="0.75"/>
  <circle cx="278.6" cy="417.7" r="4.0" fill="#4e79a7" opacity="0.75"/>
  <circle cx="290.8" cy="408.6" r="4.0" fill="#4e79a7" opacity="0.75"/>
  <circle cx="228.6" cy="379.0" r="4.0" fill="#4e79a7" opacity="0.75"/>
  <circle cx="242.0" cy="332.6" r="4.0" fill="#4e79a7" opacity="0.75"/>
  <circle cx="276.9" cy="352.2" r="4.0" fill="#4e79a7" opacity="0.75"/>
  <circle cx="277.6" cy="346.8" r="4.0" fill="#4e79a7" opacity="0.75"/>
  <circle cx="192.6" cy="396.7" r="4.0" fill="#4e79a7" opacity="0.75"/>
  <circle cx="485.6" cy="194.8" r="4.0" fill="#f28e2b" opacity="0.75"/>
  <circle cx="497.8" cy="130.9" r="4.0" fill="#f28e2b" opacity="0.75"/>
  <circle cx="466.2" cy="250.4" r="4.0" fill="#f28e2b" opacity="0.75"/>
  <circle cx="554.3" cy="162.7" r="4.0" fill="#f28e2b" opacity="0.75"/>
  <circle cx="539.7" cy="183.1" r="4.0" fill="#f28e2b" opacity="0.75"/>
  <circle cx="590.8" cy="215.4" r="4.0" fill="#f28e2b" opacity="0.75"/>
  <circle cx="432.8" cy="230.7" r="4.0" fill="#f28e2b" opacity="0.75"/>
  <circle cx="564.5" cy="262.4" r="4.0" fill="#f28e2b" opacity="0.75"/>
  <circle cx="513.5" cy="203.4" r="4.0" fill="#f28e2b" opacity="0.75"/>
  <circle cx="494.2" cy="187.0" r="4.0" fill="#f28e2b" opacity="0.75"/>
  <circle cx="543.9" cy="131.4" r="4.0" fill="#f28e2b" opacity="0.75"/>
  <circle cx="546.1" cy="233.4" r="4.0" fill="#f28e2b" opacity="0.75"/>
  <circle cx="480.5" cy="241.1" r="4.0" fill="#f28e2b" opacity="0.75"/>
  <circle cx="564.5" cy="231.9" r="4.0" fill="#f28e2b" opacity="0.75"/>
  <circle cx="507.8" cy="186.1" r="4.0" fill="#f28e2b" opacity="0.75"/>
  <circle cx="471.6" cy="222.4" r="4.0" fill="#f28e2b" opacity="0.75"/>
  <circle cx="409.6" cy="249.8" r="4.0" fill="#f28e2b" opacity="0.75"/>
  <circle cx="480.2" cy="197.7" r="4.0" fill="#f28e2b" opacity="0.75"/>
  <circle cx="577.9" cy="212.8" r="4.0" fill="#f28e2b" opacity="0.75"/>
  <circle cx="526.2" cy="206.3" r="4.0" fill="#f28e2b" opacity="0.75"/>
  <circle cx="571.8" cy="181.1" r="4.0" fill="#f28e2b" opacity="0.75"/>
  <circle cx="526.9" cy="247.3" r="4.0" fill="#f28e2b" opacity="0.75"/>
  <circle cx="561.8" cy="198.9" r="4.0" fill="#f28e2b" opacity="0.75"/>
  <circle cx="579.7" cy="213.2" r="4.0" fill="#f28e2b" opacity="0.75"/>
  <circle cx="620.0" cy="224.7" r="4.0" fill="#f28e2b" opacity="0.75"/>
  <circle cx="416.0" cy="93.0" r="4.0" fill="#e15759" opacity="0.75"/>
  <circle cx="322.4" cy="127.6" r="4.0" fill="#e15759" opacity="0.75"/>
  <circle cx="338.6" cy="56.6" r="4.0" fill="#e15759" opacity="0.75"/>
  <circle cx="381.5" cy="77.1" r="4.0" fill="#e15759" opacity="0.75"/>
  <circle cx="239.9" cy="76.4" r="4.0" fill="#e15759" opacity="0.75"/>
  <circle cx="370.0" cy="111.5" r="4.0" fill="#e15759" opacity="0.75"/>
  <circle cx="317.5" cy="96.3" r="4.0" fill="#e15759" opacity="0.75"/>
  <circle cx="421.8" cy="125.6" r="4.0" fill="#e15759" opacity="0.75"/>
  <circle cx="326.3" cy="58.3" r="4.0" fill="#e15759" opacity="0.75"/>
  <circle cx="325.5" cy="106.4" r="4.0" fill="#e15759" opacity="0.75"/>
  <circle cx="349.6" cy="130.8" r="4.0" fill="#e15759" opacity="0.75"/>
  <circle cx="355.1" cy="129.9" r="4.0" fill="#e15759" opacity="0.75"/>
  <circle cx="384.6" cy="96.1" r="4.0" fill="#e15759" opacity="0.75"/>
  <circle cx="446.6" cy="88.4" r="4.0" fill="#e15759" opacity="0.75"/>
  <circle cx="405.9" cy="132.5" r="4.0" fill="#e15759" opacity="0.75"/>
  <circle cx="339.9" cy="87.2" r="4.0" fill="#e15759" opacity="0.75"/>
  <circle cx="422.7" cy="143.0" r="4.0" fill="#e15759" opacity="0.75"/>
  <circle cx="389.2" cy="79.8" r="4.0" fill="#e15759" opacity="0.75"/>
  <circle cx="413.3" cy="76.4" r="4.0" fill="#e15759" opacity="0.75"/>
  <circle cx="347.6" cy="110.7" r="4.0" fill="#e15759" opacity="0.75"/>
  <circle cx="289.9" cy="90.8" r="4.0" fill="#e15759" opacity="0.75"/>
  <circle cx="336.8" cy="40.0" r="4.0" fill="#e15759" opacity="0.75"/>
  <circle cx="318.2" cy="87.3" r="4.0" fill="#e15759" opacity="0.75"/>
  <circle cx="275.7" cy="107.2" r="4.0" fill="#e15759" opacity="0.75"/>
  <circle cx="356.9" cy="73.3" r="4.0" fill="#e15759" opacity="0.75"/>
  <circle cx="630.0" cy="50.0" r="4.0" fill="#4e79a7" opacity="1.00"/>
  <text x="640.0" y="54.0" font-size="10" text-anchor="start" fill="#333">Cluster A</text>
  <circle cx="630.0" cy="68.0" r="4.0" fill="#f28e2b" opacity="1.00"/>
  <text x="640.0" y="72.0" font-size="10" text-anchor="start" fill="#333">Cluster B</text>
  <circle cx="630.0" cy="86.0" r="4.0" fill="#e15759" opacity="1.00"/>
  <text x="640.0" y="90.0" font-size="10" text-anchor="start" fill="#333">Cluster C</text>
  <text x="320.0" y="20.0" font-size="14" text-anchor="middle" fill="#222">Cluster Distribution</text>
</svg>
